<svg width="20" height="20" viewBox="0 0 20 20" fill="none" xmlns="http://www.w3.org/2000/svg">
  <path d="M18.33 0H1.67C0.75 0 0 0.75 0 1.67V18.33C0 19.25 0.75 20 1.67 20H18.33C19.25 20 20 19.25 20 18.33V1.67C20 0.75 19.25 0 18.33 0ZM6.67 15.83H3.33V7.5H6.67V15.83ZM5 6.25C4.08 6.25 3.33 5.5 3.33 4.58C3.33 3.67 4.08 2.92 5 2.92C5.92 2.92 6.67 3.67 6.67 4.58C6.67 5.5 5.92 6.25 5 6.25ZM16.67 15.83H13.33V11.67C13.33 10.75 12.58 10 11.67 10C10.75 10 10 10.75 10 11.67V15.83H6.67V7.5H10V8.75C10.42 8.08 11.33 7.5 12.5 7.5C14.75 7.5 16.67 9.42 16.67 11.67V15.83Z" fill="currentColor"/>
</svg> 