<svg width="28" height="28" viewBox="0 0 28 28" fill="none" xmlns="http://www.w3.org/2000/svg">
  <path d="M24 14C24 19.5228 19.5228 24 14 24C8.47715 24 4 19.5228 4 14C4 8.47715 8.47715 4 14 4C19.5228 4 24 8.47715 24 14Z" stroke="#4CAF50" stroke-width="2"/>
  <path d="M14 18V16.5C14 15.5717 14.3687 14.6815 15.0251 14.0251C15.6815 13.3687 16.5717 13 17.5 13H18" stroke="#4CAF50" stroke-width="2" stroke-linecap="round"/>
  <path d="M10 13H10.5C11.4283 13 12.3185 13.3687 12.9749 14.0251C13.6313 14.6815 14 15.5717 14 16.5V18" stroke="#4CAF50" stroke-width="2" stroke-linecap="round"/>
  <path d="M14 10H14.01" stroke="#4CAF50" stroke-width="2" stroke-linecap="round"/>
</svg> 