<svg width="20" height="20" viewBox="0 0 20 20" fill="none" xmlns="http://www.w3.org/2000/svg">
  <path d="M18.94 4.46C18.28 4.76 17.57 4.96 16.82 5.05C17.58 4.58 18.17 3.84 18.45 2.96C17.74 3.39 16.95 3.7 16.11 3.87C15.45 3.14 14.48 2.68 13.42 2.68C11.39 2.68 9.74 4.33 9.74 6.36C9.74 6.66 9.77 6.95 9.83 7.23C6.83 7.08 4.17 5.61 2.37 3.38C2.05 3.94 1.86 4.58 1.86 5.27C1.86 6.57 2.52 7.73 3.53 8.41C2.93 8.39 2.37 8.23 1.88 7.96V8.01C1.88 9.8 3.15 11.3 4.85 11.65C4.54 11.74 4.21 11.78 3.87 11.78C3.63 11.78 3.4 11.76 3.17 11.72C3.64 13.19 5.01 14.25 6.62 14.28C5.35 15.27 3.74 15.86 1.99 15.86C1.69 15.86 1.39 15.84 1.1 15.81C2.73 16.86 4.65 17.47 6.71 17.47C13.42 17.47 17.06 11.84 17.06 6.96C17.06 6.8 17.06 6.64 17.05 6.48C17.77 5.95 18.39 5.26 18.94 4.46Z" fill="currentColor"/>
</svg> 